<?xml version="1.0" standalone="no"?>
<!DOCTYPE svg PUBLIC "-//W3C//DTD SVG 20010904//EN"
 "http://www.w3.org/TR/2001/REC-SVG-20010904/DTD/svg10.dtd">
<svg version="1.0" xmlns="http://www.w3.org/2000/svg"
 width="400.000000pt" height="400.000000pt" viewBox="0 0 400.000000 400.000000"
 preserveAspectRatio="xMidYMid meet">
<metadata>
Created by potrace 1.14, written by Peter Selinger 2001-2017
</metadata>
<g transform="translate(0.000000,400.000000) scale(0.100000,-0.100000)"
fill="#000000" stroke="none">
<path d="M1783 3710 c-112 -10 -302 -59 -428 -110 -55 -22 -200 -94 -225 -111
-14 -9 -50 -32 -80 -52 -164 -105 -290 -224 -432 -407 -46 -60 -45 -58 -111
-170 -84 -145 -144 -294 -191 -483 -33 -135 -45 -391 -27 -584 12 -115 63
-323 101 -408 5 -11 21 -49 37 -85 100 -234 280 -467 495 -641 53 -44 99 -79
102 -79 3 0 24 -13 48 -29 38 -25 62 -40 134 -80 252 -139 615 -210 935 -182
195 16 304 42 533 127 61 23 204 102 293 162 78 52 293 235 293 250 0 4 22 31
49 60 27 28 66 78 87 110 22 31 42 59 45 62 9 7 91 156 116 210 78 166 125
330 148 516 58 467 -75 937 -368 1299 -163 200 -413 392 -637 488 -36 16 -74
32 -85 37 -87 39 -287 88 -410 100 -112 11 -298 11 -422 0z"/>
</g>
</svg>
